# xmcd
#
# Track frame offsets: 
#        150
#        18537
#        31985
#        57015
#        87950
#        107015
#        131250
#        151697
#        166715
#        189395
#        209342
#        225835
#        243462
#        263290
#        277530
#        297402
#
# Disc length: 4242 seconds
#
# Revision: 32
# Processed by: cddbd v1.5.2PL0 Copyright (c) Steve Scherf et al.
# Submitted via: ExactAudioCopy v1.0b3
#
DISCID=ba109010
DTITLE=Tom Waits - Mule Variations
DYEAR=1999
DGENRE=Rock
TTITLE0=Big In Japan
TTITLE1=Lowside Of The Road
TTITLE2=Hold On
TTITLE3=Get Behind The Mule
TTITLE4=House Where Nobody Lives
TTITLE5=Cold Water
TTITLE6=Pony
TTITLE7=What's He Building?
TTITLE8=Black Market Baby
TTITLE9=Eyeball Kid
TTITLE10=Picture In A Frame
TTITLE11=Chocolate Jesus
TTITLE12=Georgia Lee
TTITLE13=Filipino Box Spring Hog
TTITLE14=Take It With Me
TTITLE15=Come On Up To The House
EXTD=YEAR: 1999
EXTT0=
EXTT1=
EXTT2=
EXTT3=
EXTT4=
EXTT5=
EXTT6=
EXTT7=
EXTT8=
EXTT9=
EXTT10=
EXTT11=
EXTT12=
EXTT13=
EXTT14=
EXTT15=
PLAYORDER=
